<?xml version="1.0" encoding="utf-8"?>
<svg version="1.1" xmlns:xlink="http://www.w3.org/1999/xlink" width="41px" height="41px" xmlns="http://www.w3.org/2000/svg">
  <g transform="matrix(1 0 0 1 -27 -179 )">
    <path d="M 47.5 179  C 58.98 179  68 188.02  68 199.5  C 68 210.98  58.98 220  47.5 220  C 36.02 220  27 210.98  27 199.5  C 27 188.02  36.02 179  47.5 179  Z " fill-rule="nonzero" fill="#ffffff" stroke="none" />
    <path d="M 47.5 179.5  C 58.7 179.5  67.5 188.3  67.5 199.5  C 67.5 210.7  58.7 219.5  47.5 219.5  C 36.3 219.5  27.5 210.7  27.5 199.5  C 27.5 188.3  36.3 179.5  47.5 179.5  Z " stroke-width="1" stroke="#797979" fill="none" />
  </g>
</svg>