<?xml version="1.0" encoding="utf-8"?>
<svg version="1.1" xmlns:xlink="http://www.w3.org/1999/xlink" width="377px" height="124px" xmlns="http://www.w3.org/2000/svg">
  <g transform="matrix(1 0 0 1 -1 -229 )">
    <path d="M 1 229  L 378 229  L 378 353  L 1 353  L 1 229  " fill-rule="nonzero" fill="#cccccc" stroke="none" />
    <path d="M 10 238  L 369 238  L 369 344  L 10 344  L 10 238  " fill-rule="nonzero" fill="#ffffff" stroke="none" />
    <path d="M 206.34 266.2  C 201.132 266.2  197.04 262.108  197.04 256.9  C 197.04 251.692  201.132 247.6  206.34 247.6  C 211.548 247.6  215.64 251.692  215.64 256.9  C 215.64 262.108  211.548 266.2  206.34 266.2  " fill-rule="nonzero" fill="#cccccc" stroke="none" />
    <path d="M 13 341  L 13 286  L 101.25 261  L 224.8 321.26525198939  L 295.4 276  L 366 321.26525198939  L 366 341  L 13 341  " fill-rule="nonzero" fill="#169bd5" stroke="none" />
  </g>
</svg>