<?xml version="1.0" encoding="utf-8"?>
<svg version="1.1" xmlns:xlink="http://www.w3.org/1999/xlink" width="40px" height="50px" xmlns="http://www.w3.org/2000/svg">
  <defs>
    <filter x="443px" y="43px" width="40px" height="50px" filterUnits="userSpaceOnUse" id="filter1">
      <feOffset dx="1" dy="1" in="SourceAlpha" result="shadowOffsetInner" />
      <feGaussianBlur stdDeviation="2.5" in="shadowOffsetInner" result="shadowGaussian" />
      <feComposite in2="shadowGaussian" operator="atop" in="SourceAlpha" result="shadowComposite" />
      <feColorMatrix type="matrix" values="0 0 0 0 0  0 0 0 0 0  0 0 0 0 0  0 0 0 0.698039215686274 0  " in="shadowComposite" />
    </filter>
    <g id="widget2">
      <path d="M 462 86.0369284683536  C 456.2 76.4073405959099  447.5 70.6295878724437  447.5 61  C 447.5 55.9857142857143  450.4 47.5  462 47.5  C 473.6 47.5  476.5 55.9857142857143  476.5 61  C 476.5 70.6295878724437  467.8 76.4073405959099  462 86.0369284683536  Z " fill-rule="nonzero" fill="#009dd9" stroke="none" />
      <path d="M 462 87  C 456 77  447 71  447 61  C 447 55.8  450 47  462 47  C 474 47  477 55.8  477 61  C 477 71  468 77  462 87  Z M 462 85.0738569367072  C 467.6 75.8146811918198  476 70.2591757448874  476 61  C 476 56.1714285714286  473.2 48  462 48  C 450.8 48  448 56.1714285714286  448 61  C 448 70.2591757448874  456.4 75.8146811918198  462 85.0738569367072  Z " fill-rule="nonzero" fill="#ffffff" stroke="none" />
    </g>
  </defs>
  <g transform="matrix(1 0 0 1 -443 -43 )">
    <use xlink:href="#widget2" filter="url(#filter1)" />
    <use xlink:href="#widget2" />
  </g>
</svg>